<svg xmlns="http://www.w3.org/2000/svg" xmlns:xlink="http://www.w3.org/1999/xlink" width="442" height="109" version="1.2" baseProfile="tiny" data-reactroot="">
  <defs/>
  <g fill="none" stroke="black" stroke-width="1" fill-rule="evenodd" stroke-linecap="square" stroke-linejoin="bevel">
    <g fill="#ffffff" fill-opacity="1" stroke="none" transform="matrix(1,0,0,1,0,0)">
      <rect x="0" y="0" width="440" height="109"/>
    </g>
    <rect x="0" y="0" width="441" height="108" stroke="#eaecef" stroke-width="2"/>
    <g fill="#586069" fill-opacity="1" stroke="none" transform="matrix(1.25,0,0,1.25,17,21)">
      <image x="0" y="-2" width="14" height="14" href="pdf-svgrepo-com.svg" />
    </g>
    <g fill="#0366d6" fill-opacity="1" stroke="#0366d6" stroke-opacity="1" stroke-width="1" stroke-linecap="square" stroke-linejoin="bevel" transform="matrix(1,0,0,1,0,0)">
      <a target="" href="https://github.com/inQWIRE/VyZX">
        <text fill="#0366d6" fill-opacity="1" stroke="none" xml:space="" x="41" y="33" font-family="sans-serif" font-size="16" font-weight="630" font-style="normal">
          A Gentle Introduction to Proof Assistants
        </text>
      </a>
    </g>
    <g fill="#586069" fill-opacity="1" stroke="#586069" stroke-opacity="1" stroke-width="1" stroke-linecap="square" stroke-linejoin="bevel" transform="matrix(1,0,0,1,0,0)">
      <text fill="#586069" fill-opacity="1" stroke="none" xml:space="" x="17" y="65" font-family="sans-serif" font-size="14" font-weight="400" font-style="normal">New College of Florida Thesis</text>
    </g>
    <g fill="#24292e" fill-opacity="1" stroke="#24292e" stroke-opacity="1" stroke-width="1" stroke-linecap="square" stroke-linejoin="bevel" transform="matrix(1,0,0,1,0,0)">
      <text fill="#24292e" fill-opacity="1" stroke="none" xml:space="" x="33" y="91" font-family="sans-serif" font-size="12" font-weight="400" font-style="normal"></text>
    </g>
    <g fill="#000000" fill-opacity="1" stroke="none" transform="matrix(1,0,0,1,75,78)"/>
    <g fill="#586069" fill-opacity="1" stroke="#586069" stroke-opacity="1" stroke-width="1" stroke-linecap="square" stroke-linejoin="bevel" transform="matrix(1,0,0,1,0,0)"/>
    <g fill="#000000" fill-opacity="1" stroke="none" transform="matrix(1,0,0,1,138,78)"/>
    <g fill="#586069" fill-opacity="1" stroke="#586069" stroke-opacity="1" stroke-width="1" stroke-linecap="square" stroke-linejoin="bevel" transform="matrix(1,0,0,1,0,0)"/>
  </g>
</svg>
